# xmcd
#
# Track frame offsets: 
#        150
#        14620
#        29262
#        45702
#        63977
#        79422
#        95122
#        115750
#        133425
#        154120
#        170652
#        189405
#        201882
#        219792
#        236887
#        253375
#        274042
#        291712
#        304425
#        323295
#
# Disc length: 4510 seconds
#
# Revision: 0
# Processed by: cddbd v1.5.2PL0 Copyright (c) Steve Scherf et al.
# Submitted via: ExactAudioCopy v1.3
#
DISCID=36119c14
DTITLE=Noel Soto - Todas las grabaciones para discos Polydor (1974 - 1
DTITLE=981)
DYEAR=1999
DGENRE=Pop
TTITLE0=Hello, Hello
TTITLE1=Dejandome Llevar por la Corriente
TTITLE2=Tu Seras mi Companera
TTITLE3=La Felicidad esta mas Arriba
TTITLE4=Un Pobre Payaso
TTITLE5=A la Orilla del Nervion
TTITLE6=Quien me Ayudara
TTITLE7=Jaque Mate
TTITLE8=Un Tonto en la Carretera
TTITLE9=Poco antes del Amanecer
TTITLE10=A Ti que me Quieres Bien
TTITLE11=Juegos de Sociedad
TTITLE12=Mas que Amigos
TTITLE13=Quien me Presta un Verso
TTITLE14=Deborah
TTITLE15=A mas de Mil Kilometros
TTITLE16=Ahora te Toca a Ti
TTITLE17=Todavia Mas
TTITLE18=Y Quien va a Creer
TTITLE19=Entre Lugo y El Ferrol
EXTD=
EXTT0=
EXTT1=
EXTT2=
EXTT3=
EXTT4=
EXTT5=
EXTT6=
EXTT7=
EXTT8=
EXTT9=
EXTT10=
EXTT11=
EXTT12=
EXTT13=
EXTT14=
EXTT15=
EXTT16=
EXTT17=
EXTT18=
EXTT19=
PLAYORDER=
